<?xml version="1.0" encoding="UTF-8" standalone="no"?>
<svg
   xmlns:dc="http://purl.org/dc/elements/1.1/"
   xmlns:cc="http://creativecommons.org/ns#"
   xmlns:rdf="http://www.w3.org/1999/02/22-rdf-syntax-ns#"
   xmlns:svg="http://www.w3.org/2000/svg"
   xmlns="http://www.w3.org/2000/svg"
   xmlns:sodipodi="http://sodipodi.sourceforge.net/DTD/sodipodi-0.dtd"
   xmlns:inkscape="http://www.inkscape.org/namespaces/inkscape"
   width="13.558038mm"
   height="13.558038mm"
   viewBox="0 0 13.558038 13.558038"
   version="1.1"
   id="svg8"
   inkscape:version="1.0 (4035a4f, 2020-05-01)"
   sodipodi:docname="empiricalmethods-logo-favicon.svg">
  <defs
     id="defs2" />
  <sodipodi:namedview
     showguides="false"
     id="base"
     pagecolor="#ffffff"
     bordercolor="#666666"
     borderopacity="1.0"
     inkscape:pageopacity="0.0"
     inkscape:pageshadow="2"
     inkscape:zoom="0.70000001"
     inkscape:cx="85.48205"
     inkscape:cy="131.41825"
     inkscape:document-units="mm"
     inkscape:current-layer="layer4"
     inkscape:document-rotation="0"
     showgrid="false"
     inkscape:window-width="1252"
     inkscape:window-height="687"
     inkscape:window-x="0"
     inkscape:window-y="23"
     inkscape:window-maximized="0"
     fit-margin-top="0"
     fit-margin-left="0"
     fit-margin-right="0"
     fit-margin-bottom="0">
    <sodipodi:guide
       position="17.649656,-9.484229"
       orientation="-9.5964548,-0.25096063"
       id="guide1210" />
    <sodipodi:guide
       position="17.583256,-2.4998588"
       orientation="-9.5964586,0.25096063"
       id="guide1212" />
    <sodipodi:guide
       position="16.393796,0.056781239"
       orientation="-1.1338583e-05,0"
       id="guide1214" />
  </sodipodi:namedview>
  <metadata
     id="metadata5">
    <rdf:RDF>
      <cc:Work
         rdf:about="">
        <dc:format>image/svg+xml</dc:format>
        <dc:type
           rdf:resource="http://purl.org/dc/dcmitype/StillImage" />
        <dc:title></dc:title>
      </cc:Work>
    </rdf:RDF>
  </metadata>
  <g
     inkscape:label="Layer 1"
     inkscape:groupmode="layer"
     id="layer1"
     transform="translate(-122.11793,-73.934294)" />
  <g
     inkscape:groupmode="layer"
     id="layer3"
     inkscape:label="Layer 2"
     transform="translate(-122.11793,-73.934294)" />
  <g
     inkscape:groupmode="layer"
     id="layer4"
     inkscape:label="Layer 3"
     transform="translate(-122.11793,-73.934294)">
    <g
       inkscape:export-ydpi="300"
       inkscape:export-xdpi="300"
       inkscape:export-filename="/Users/stefanhartmann/empiricalmethods-logo-big.png"
       transform="matrix(0.45193458,0,0,0.45193458,66.928617,40.520833)"
       id="g887">
      <circle
         transform="translate(1.0833333e-6)"
         r="15"
         cy="88.934288"
         cx="137.11792"
         id="path1013"
         style="fill:#01115a;fill-opacity:0.843137;stroke:#000000;stroke-width:0;stroke-miterlimit:4;stroke-dasharray:none;stroke-opacity:1"
         inkscape:export-filename="/Users/stefanhartmann/emp-meth-logo.png"
         inkscape:export-xdpi="300"
         inkscape:export-ydpi="300" />
      <g
         id="g1229"
         inkscape:export-filename="/Users/stefanhartmann/emp-meth-logo.png"
         inkscape:export-xdpi="300"
         inkscape:export-ydpi="300">
        <g
           id="g1218">
          <path
             id="path1106"
             d="m 138.51172,87.435547 c -3.62268,0 -6.89972,0.395711 -9.3711,1.074219 -1.23568,0.339253 -2.26988,0.738663 -3.09374,1.273437 -0.82387,0.534774 -1.58399,1.322096 -1.58399,2.431641 0,1.109544 0.76012,1.896866 1.58399,2.43164 0.82386,0.534774 1.85806,0.934184 3.09374,1.273438 2.47138,0.678508 5.74842,1.072265 9.3711,1.072266 0.41929,-4e-6 0.83835,-0.0046 1.25586,-0.01563 l -0.0664,-2.539062 c -0.39504,0.01043 -0.79245,0.01562 -1.18945,0.01563 -3.43419,0 -6.54602,-0.391267 -8.69922,-0.982422 -1.0766,-0.295577 -1.91352,-0.652412 -2.38281,-0.957031 -0.4693,-0.304619 -0.42578,-0.439653 -0.42578,-0.298828 0,0.140825 -0.0435,0.0038 0.42578,-0.300782 0.46929,-0.304619 1.30621,-0.6595 2.38281,-0.955078 2.1532,-0.591154 5.26503,-0.982421 8.69922,-0.982422 0.39697,-10e-7 0.79444,0.0052 1.18945,0.01563 l 0.0664,-2.539063 c -0.41748,-0.01101 -0.83661,-0.01758 -1.25586,-0.01758 z"
             style="color:#000000;font-style:normal;font-variant:normal;font-weight:normal;font-stretch:normal;font-size:medium;line-height:normal;font-family:sans-serif;font-variant-ligatures:normal;font-variant-position:normal;font-variant-caps:normal;font-variant-numeric:normal;font-variant-alternates:normal;font-variant-east-asian:normal;font-feature-settings:normal;font-variation-settings:normal;text-indent:0;text-align:start;text-decoration:none;text-decoration-line:none;text-decoration-style:solid;text-decoration-color:#000000;letter-spacing:normal;word-spacing:normal;text-transform:none;writing-mode:lr-tb;direction:ltr;text-orientation:mixed;dominant-baseline:auto;baseline-shift:baseline;text-anchor:start;white-space:normal;shape-padding:0;shape-margin:0;inline-size:0;clip-rule:nonzero;display:inline;overflow:visible;visibility:visible;opacity:1;isolation:auto;mix-blend-mode:normal;color-interpolation:sRGB;color-interpolation-filters:linearRGB;solid-color:#000000;solid-opacity:1;vector-effect:none;fill:#fffafa;fill-opacity:1;fill-rule:nonzero;stroke:none;stroke-width:2.54078;stroke-linecap:butt;stroke-linejoin:miter;stroke-miterlimit:4;stroke-dasharray:none;stroke-dashoffset:0;stroke-opacity:1;color-rendering:auto;image-rendering:auto;shape-rendering:auto;text-rendering:auto;enable-background:accumulate;stop-color:#000000;stop-opacity:1" />
          <path
             id="path862-72"
             style="fill:none;fill-opacity:0.843137;stroke:#fffafa;stroke-width:2.54078;stroke-miterlimit:4;stroke-dasharray:none;stroke-opacity:1"
             d="m 139.73374,88.722594 a 12.777581,3.5080437 0 0 1 -1.22233,0.0161 12.777581,3.5080437 0 0 1 -12.77758,-3.508045 12.777581,3.5080437 0 0 1 12.77758,-3.508044 12.777581,3.5080437 0 0 1 1.22224,0.01608" />
        </g>
        <g
           id="g1208">
          <path
             sodipodi:nodetypes="ssssccsssssssccccccccsss"
             id="path1204"
             d="m 144.91797,80.455078 c -1.23164,5e-6 -2.0074,0.8943 -2.5332,1.806641 -0.52581,0.912341 -0.92172,2.058704 -1.25782,3.4375 -0.6722,2.757592 -1.06445,6.433276 -1.06445,10.496093 0,0.470247 0.007,0.296768 0.0176,0.764832 l 2.70321,-0.02796 c -0.0105,-0.44709 -0.0255,-0.287742 -0.0255,-0.736872 0,-3.885203 0.39278,-7.406432 0.99024,-9.857421 0.29873,-1.225495 0.65906,-2.186342 0.97265,-2.730469 0.31359,-0.544127 0.46018,-0.455079 0.19727,-0.455078 -0.26292,2e-6 -0.11633,-0.08905 0.19726,0.455078 0.3136,0.544125 0.67392,1.504976 0.97266,2.730469 0.59747,2.450985 0.99027,5.972219 0.99023,9.857421 0,0.379508 -1.9e-4,0.317491 -0.008,0.696744 v 0 0 c -8.2e-4,0.05793 0.002,-0.07056 0,0 l 2.69113,-0.02106 c 0.004,-0.738374 0,0 0,0 v 0 c 0.008,-0.393014 0.0117,-0.280293 0.0117,-0.675688 4e-5,-4.062834 -0.39224,-7.738496 -1.06446,-10.496093 -0.3361,-1.378799 -0.732,-2.525161 -1.25781,-3.4375 -0.52581,-0.912339 -1.30156,-1.80665 -2.5332,-1.806641 z"
             style="color:#000000;font-style:normal;font-variant:normal;font-weight:normal;font-stretch:normal;font-size:medium;line-height:normal;font-family:sans-serif;font-variant-ligatures:normal;font-variant-position:normal;font-variant-caps:normal;font-variant-numeric:normal;font-variant-alternates:normal;font-variant-east-asian:normal;font-feature-settings:normal;font-variation-settings:normal;text-indent:0;text-align:start;text-decoration:none;text-decoration-line:none;text-decoration-style:solid;text-decoration-color:#000000;letter-spacing:normal;word-spacing:normal;text-transform:none;writing-mode:lr-tb;direction:ltr;text-orientation:mixed;dominant-baseline:auto;baseline-shift:baseline;text-anchor:start;white-space:normal;shape-padding:0;shape-margin:0;inline-size:0;clip-rule:nonzero;display:inline;overflow:visible;visibility:visible;opacity:1;isolation:auto;mix-blend-mode:normal;color-interpolation:sRGB;color-interpolation-filters:linearRGB;solid-color:#000000;solid-opacity:1;vector-effect:none;fill:#c3221a;fill-opacity:1;fill-rule:nonzero;stroke:none;stroke-width:2.69645;stroke-linecap:butt;stroke-linejoin:miter;stroke-miterlimit:4;stroke-dasharray:none;stroke-dashoffset:0;stroke-opacity:1;color-rendering:auto;image-rendering:auto;shape-rendering:auto;text-rendering:auto;enable-background:accumulate;stop-color:#000000;stop-opacity:1" />
          <path
             sodipodi:nodetypes="sssscccccccsssssssccsssss"
             id="path1102"
             d="m 137.93359,80.454875 c -1.22945,5e-6 -2.00529,0.893642 -2.53125,1.806254 -0.52595,0.912611 -0.92166,2.059343 -1.25781,3.438338 -0.6723,2.757991 -1.06641,6.431975 -1.06641,10.495054 0,0.425838 0.0344,0.471773 0.0344,0.471773 v 0 l -0.0919,-0.0042 1.27752,0.154309 1.49101,0.121992 -0.004,0.475328 0.004,-0.475328 c -0.009,-0.404017 -0.0157,-0.336876 -0.0157,-0.74389 0,-3.884944 0.39092,-7.404545 0.98828,-9.855136 0.29868,-1.225295 0.65922,-2.18607 0.97266,-2.729927 0.31343,-0.543857 0.45995,-0.455967 0.19921,-0.455966 -0.26073,2e-6 -0.11421,-0.08789 0.19922,0.455966 0.31344,0.543854 0.67398,1.504632 0.97266,2.729927 0.59736,2.450591 0.99023,5.970184 0.99023,9.855136 0,0.449846 -0.005,0.320193 -0.0156,0.765639 l 2.70321,-0.02796 c 0.0114,-0.469638 0.006,-0.268223 0.006,-0.737681 0,-4.063087 -0.3941,-7.737062 -1.0664,-10.495054 -0.33615,-1.378997 -0.7299,-2.525728 -1.25586,-3.438338 -0.52596,-0.912611 -1.30375,-1.806263 -2.53321,-1.806254 z"
             style="color:#000000;font-style:normal;font-variant:normal;font-weight:normal;font-stretch:normal;font-size:medium;line-height:normal;font-family:sans-serif;font-variant-ligatures:normal;font-variant-position:normal;font-variant-caps:normal;font-variant-numeric:normal;font-variant-alternates:normal;font-variant-east-asian:normal;font-feature-settings:normal;font-variation-settings:normal;text-indent:0;text-align:start;text-decoration:none;text-decoration-line:none;text-decoration-style:solid;text-decoration-color:#000000;letter-spacing:normal;word-spacing:normal;text-transform:none;writing-mode:lr-tb;direction:ltr;text-orientation:mixed;dominant-baseline:auto;baseline-shift:baseline;text-anchor:start;white-space:normal;shape-padding:0;shape-margin:0;inline-size:0;clip-rule:nonzero;display:inline;overflow:visible;visibility:visible;isolation:auto;mix-blend-mode:normal;color-interpolation:sRGB;color-interpolation-filters:linearRGB;solid-color:#000000;solid-opacity:1;vector-effect:none;fill:#c3221a;fill-opacity:1;fill-rule:nonzero;stroke:none;stroke-width:2.69646;stroke-linecap:butt;stroke-linejoin:miter;stroke-miterlimit:4;stroke-dasharray:none;stroke-dashoffset:0;stroke-opacity:1;color-rendering:auto;image-rendering:auto;shape-rendering:auto;text-rendering:auto;enable-background:accumulate;stop-color:#000000" />
        </g>
      </g>
    </g>
  </g>
</svg>
